<?xml version="1.0" standalone="no"?>
<!DOCTYPE svg PUBLIC "-//W3C//DTD SVG 20010904//EN"
 "http://www.w3.org/TR/2001/REC-SVG-20010904/DTD/svg10.dtd">
<svg version="1.0" xmlns="http://www.w3.org/2000/svg"
 width="250.000000pt" height="250.000000pt" viewBox="0 0 250.000000 250.000000"
 preserveAspectRatio="xMidYMid meet">

<g transform="translate(0.000000,250.000000) scale(0.100000,-0.100000)"
fill="#000000" stroke="none">
<path d="M0 1795 l0 -705 540 2 541 3 212 438 c116 240 217 437 224 437 6 0
34 -14 60 -30 l49 -31 38 -422 c21 -232 40 -446 43 -474 l6 -53 -274 -2 -274
-3 -33 -65 c-18 -36 -79 -163 -136 -282 l-105 -218 -75 0 -75 0 106 218 c116
238 163 339 163 347 0 3 -227 5 -505 5 l-505 0 0 -480 0 -480 1250 0 1250 0 0
1250 0 1250 -1250 0 -1250 0 0 -705z"/>
<path d="M1369 1377 l-136 -282 160 -3 c88 -1 161 -1 162 0 4 5 -41 558 -46
562 -3 3 -66 -122 -140 -277z"/>
</g>
</svg>
